<?xml version="1.0" encoding="utf-8"?>
<!-- Generator: Adobe Illustrator 21.0.0, SVG Export Plug-In . SVG Version: 6.00 Build 0)  -->
<svg version="1.1" id="Layer_1" xmlns="http://www.w3.org/2000/svg" xmlns:xlink="http://www.w3.org/1999/xlink" x="0px" y="0px"
	 viewBox="0 0 1911 303" style="enable-background:new 0 0 1911 303;" xml:space="preserve">
<style type="text/css">
	.st0{fill:#C06363;}
	.st1{font-family:'TimesNewRomanPS-BoldMT';}
	.st2{font-size:164.4839px;}
</style>
<g>
	<rect x="207.2" y="246.7" class="st0" width="1703.9" height="14.6"/>
	<g>
		<path class="st0" d="M112.6,189.7c-24.3-32.5-86.2-40.1-112.7-10.9c23.8,37.2,84.9,58.3,124.5,39.8c-23-8.3-44.5-14.6-63.8-29.2
			c10.3-1,34.9-7.7,48.7,0.6L112.6,189.7z"/>
		<path class="st0" d="M106.6,133.3c6.5-52.7-21.6-69.4-64.5-83.8C8,85.2,59.1,143,95.5,150.1C92.1,129.4,77,108,61.1,94.5
			c18.4,1.2,33,16,38.3,32.9L106.6,133.3z"/>
		<path class="st0" d="M135.1,93.2c27.1-29.8,30.1-55.1,6.3-87.6c-39.9,12.9-28,62-13.1,85.5c0-14.3-0.3-30.4,5.2-43.6
			c10.6,12.1,10.8,28.8,4.5,42L135.1,93.2z"/>
		<path class="st0" d="M191.1,66.8c24-12.1,44.4-40.5,32.5-66.2c-35.2,16.9-51.5,24.7-45.1,69.9c1.6-14.6,12.1-27.7,24.2-35.3
			c0,0.2-0.3-0.1-0.1-0.2c-1.6,13-4.4,27-10.7,38.4L191.1,66.8z"/>
		<path class="st0" d="M217.7,70.5c33.3-12.9,75.7-5.3,75.5,38c-26.9,7.9-47.4-8.7-63.5-29.6c11.4-0.5,20.1,1.8,29.5,9
			c-8.5-11.9-20.7-19.5-35-18.2L217.7,70.5z"/>
		<path class="st0" d="M155.6,255.5c-39.7-12.5-93.4-12-110.4,35.2c40.7,17,87.8,21,115.6-15.1c-28.2,10.9-41.9,10.9-70.7,6.7
			c12.9-12.5,28.9-25.9,49.4-25L155.6,255.5z"/>
		<path class="st0" d="M302.9,245.5c-48.5,15.6-115.7,17.8-155.1-19.6c-34.9-33.3-33.7-77.3-3.5-111.4c18.9-21.3,42-38.2,68.6-14.4
			c43.5,39-25.8,73.2-28.8,38.3c6.7-1,9.4-5.6,17.2-5.6c-13.4-40.3-93.5,10-67.5,61c7.5,14.7,17.1,26.3,28.3,35.1
			c22.9,18,52.2,24.5,82.5,23L302.9,245.5z"/>
		<path class="st0" d="M213.5,246.7c0,0-31.2-3.6-49.7-16.5l-3.1,6c0,0,15.5,22.9,51.5,25.2"/>
	</g>
</g>
<text transform="matrix(0.9667 0 0 1 328.4547 219.0681)" class="st0 st1 st2">Imalka Cake Creations</text>
</svg>
