<?xml version="1.0" encoding="utf-8"?>
<!-- Generator: Adobe Illustrator 21.0.0, SVG Export Plug-In . SVG Version: 6.00 Build 0)  -->
<svg version="1.1" id="Layer_1" xmlns="http://www.w3.org/2000/svg" xmlns:xlink="http://www.w3.org/1999/xlink" x="0px" y="0px"
	 viewBox="0 0 1920 800" style="enable-background:new 0 0 1920 800;" xml:space="preserve">
<style type="text/css">
	.st0{clip-path:url(#SVGID_2_);fill:#FFFFFF;}
	.st1{clip-path:url(#SVGID_4_);fill:#F0BABA;}
	.st2{clip-path:url(#SVGID_6_);fill:#F0BABA;}
</style>
<g id="Layer_1_1_">
</g>
<g id="Layer_2">
	<g>
		<g>
			<defs>
				<rect id="SVGID_1_" width="1920" height="800"/>
			</defs>
			<clipPath id="SVGID_2_">
				<use xlink:href="#SVGID_1_"  style="overflow:visible;"/>
			</clipPath>
			<rect x="-105.3" y="-59.2" class="st0" width="2085.2" height="948.1"/>
		</g>
		<g>
			<defs>
				<rect id="SVGID_3_" width="1920" height="800"/>
			</defs>
			<clipPath id="SVGID_4_">
				<use xlink:href="#SVGID_3_"  style="overflow:visible;"/>
			</clipPath>
			<path class="st1" d="M1925.9,650.8c-3.3,0.6-6.7,0.9-10.1,0.9c-36.4,0-66.2-32.8-66.2-72.9v-3.6c0-0.9,0-1.6-0.1-2.5
				c-1.9-41-32.9-73.5-70.2-73.5c-37.3,0-68.4,32.5-70.2,73.5c-0.1,0.9-0.1,1.6-0.1,2.5v20.6c0,40.1-29.8,72.9-66.2,72.9
				c-36.4,0-66.2-32.8-66.2-72.9v-41.7c0-27.1-20.1-49.3-44.8-49.3c-24.6,0-44.8,22.2-44.8,49.3v48.1c0,35.1-26.1,63.8-58,63.8
				c-8,0-15.8-1.8-23.1-5.3c-8.9-4.3-18.3-3.4-26.4,2.4c-8.1,5.8-12.6,15-12.6,25.6v57.4c0,16.2-12,29.5-26.8,29.5
				c-14.7,0-26.8-13.3-26.8-29.5V735c0-10.3-4.2-19.1-11.8-25c-7.6-5.9-16.6-7.3-25.4-3.8c-5.3,2.1-10.9,3.1-16.5,3.1
				c-27.3,0-49.6-24.6-49.6-54.6v-27.2c0-25.3-18.8-46-41.8-46s-41.8,20.7-41.8,46v13.1c0,17.7-13.2,32.2-29.2,32.2
				c-16.1,0-29.2-14.5-29.2-32.2v-74.2c0-34.1-25.4-62-56.3-62c-31,0-56.3,27.9-56.3,62v12.8c0,11.1-7.8,20.6-17.9,21.5
				c-14.4,1.4-25.4,14.6-25.4,30.5v15.6c0,20.2-15.1,36.8-33.4,36.8c-18.4,0-33.4-16.6-33.4-36.8v-14.1c0-20.4-15.2-37.1-33.7-37.1
				c-18.6,0-33.7,16.7-33.7,37.1v13.2c0,64.2-47.8,116.8-106.2,116.8s-106.1-52.6-106.1-116.8v-60.7c0-9.3-3.3-17.2-9.7-23.2
				c-6.2-5.8-14.3-9.1-22.5-9.1s-16.3,3.2-22.5,9.1c-6.4,6-9.7,14-9.7,23.3v33.5c0,11.7-8.7,21.2-19.3,21.2c-2,0-4-0.3-5.9-1
				c-8.7-3.1-17.5-1.6-24.9,4.4c-7.4,5.9-11.5,14.7-11.5,24.7v34.7c0,11.4-8.5,20.8-18.9,20.8s-18.9-9.4-18.9-20.8v-50.2
				c0-10.9-4.7-20.3-13.2-26c-8.4-5.7-18.2-6.2-27-1.4c-8.9,4.9-18.6,7.4-28.5,7.4c-35.5,0-64.6-32-64.6-71.1V554
				c0-30.9-23-54.7-51-54.7c-28.1,0-51,23.8-51,54.7v39c0,28.4-21.1,51.7-46.9,51.7c-4.9,0-9.9-0.9-14.5-2.6
				c-8.7-3.2-17.5-1.7-25,4.3c-7.5,5.9-11.5,14.7-11.5,24.8v33.7c0,42.3-31.5,76.9-69.9,76.9c-4.7,0-9.4-0.5-13.8-1.5V78.8h1941.2
				v572H1925.9z"/>
		</g>
		<g>
			<defs>
				<rect id="SVGID_5_" width="1920" height="800"/>
			</defs>
			<clipPath id="SVGID_6_">
				<use xlink:href="#SVGID_5_"  style="overflow:visible;"/>
			</clipPath>
			<rect x="-72.3" y="-23.2" class="st2" width="2088.2" height="210"/>
		</g>
	</g>
</g>
<g id="Layer_3">
	
		<image style="display:none;overflow:visible;enable-background:new    ;" width="400" height="300" xlink:href="B474CD66.jpeg"  transform="matrix(2.5625 0 0 2.5625 55.1107 -816.5489)">
	</image>
</g>
<image style="overflow:visible;" width="1361" height="1364" xlink:href="girl.png"  transform="matrix(0.5661 0 0 0.5661 1113.9318 27.7819)">
</image>
</svg>
