<?xml version="1.0" encoding="utf-8"?>
<!-- Generator: Adobe Illustrator 21.0.0, SVG Export Plug-In . SVG Version: 6.00 Build 0)  -->
<svg version="1.1" id="Layer_1" xmlns="http://www.w3.org/2000/svg" xmlns:xlink="http://www.w3.org/1999/xlink" x="0px" y="0px"
	 viewBox="0 0 9055 1162" style="enable-background:new 0 0 9055 1162;" xml:space="preserve">
<style type="text/css">
	.st0{fill:#A30D5F;stroke:#A30D5F;stroke-width:4;stroke-miterlimit:10;}
</style>
<g>
	<path class="st0" d="M495,234.2l-8.7,28c-38.8,2.4-64.6,7.1-77.3,14.1c-8.3,4.7-15.1,11.8-20.6,21.2
		c-6.4,12.3-25.2,77.2-56.3,194.9c-10.2,38.8-36,144.7-77.6,317.8c23.8,9,53.9,13,90.3,12l-8.2,24c-10.9,0.3-32.7-1.2-65.4-4.6
		c-23.5-2.3-50.9-3.4-82.2-3.4c-43.3,0-82.9,3.3-119,10l6-27c37.5-5.8,66-13.3,85.4-22.5c4.8-2.4,8.5-5.3,11.3-8.7
		c5.1-6.1,10.6-18.5,16.6-37.1c6-18.6,26.3-94.4,61.1-227.5c10.2-38.5,31-122.5,62.3-252.2c-23.5-0.7-52.3,2.3-86.3,9l9.7-28
		c14.3-3.7,28.9-6.3,43.9-7.8s48.9-2.9,101.7-4.3C431,240.9,468.8,238.2,495,234.2z"/>
	<path class="st0" d="M531.2,525.2l-15.3-20c33.7-33.5,65.7-58.2,96-74.1c30.3-15.9,54.3-23.9,71.7-23.9c7.2,0,12.6,1.6,16.2,4.7
		c3.6,3.1,5.4,7.4,5.4,12.9c0,6.8-2.7,20-8.2,39.4c-7.9,28.6-13.4,51.2-16.5,67.9c81.8-83.2,144.3-124.8,187.5-124.8
		c11.2,0,19.8,3.1,25.5,9.4c5.8,6.3,8.7,16.1,8.7,29.7c0,14.3-5.1,38.6-15.3,72.9c38.7-40.7,72.2-69.6,100.7-86.5
		c28.5-16.9,50.7-25.4,66.7-25.4c14.2,0,25.3,4.1,33.1,12.3c7.8,8.2,11.7,20.8,11.7,37.8c0,10.2-1.7,22.3-5.1,36.3
		c-3.4,14-15.9,56.5-37.4,127.6c-27,88.2-40.5,140.7-40.5,157.7c0,11.6,4.8,17.4,14.3,17.4c6.5,0,12.8-2,18.9-6.1
		c20.1-14.2,40.6-31.9,61.7-52.9l16.8,18c-7.2,5.8-20.6,17.7-40.3,35.7c-27.2,24.5-45.9,39.8-56.1,45.9
		c-19.7,11.6-36.3,17.3-49.8,17.3c-10.2,0-19.1-5-26.9-15c-7.8-10-11.7-23.9-11.7-41.5c0-16.3,2.4-35.4,7.1-57.3
		c4.8-21.9,18.7-71,41.8-147.5c17.3-57.4,26-92.2,26-104.4c0-11.5-5.1-17.3-15.3-17.3c-8.5,0-19.8,4.3-34.1,12.8
		c-29.2,17.7-53.6,39.3-73.3,64.7c-13.6,17.7-25.5,45.7-35.6,84.1c-22.7,83.9-39.7,152.4-50.9,205.4h-73l76.2-311.8
		c5.5-22.4,8.2-35.4,8.2-38.8c0-5.3-1.4-9.4-4.1-12.2c-2.7-2.8-6.7-4.2-11.8-4.2c-9.2,0-23.6,7.1-43,21.4
		c-33.8,24.1-58.1,47.5-72.9,70.1s-27.6,57-38.1,103.2l-39.4,172.3h-72.9L596,594.8c17-70.4,25.6-108.7,25.6-114.8
		c0-7.9-3.1-11.8-9.2-11.8C599.1,468.2,572,487.2,531.2,525.2z"/>
	<path class="st0" d="M1543.8,400.4l34.1-7l-38.1,129.1c-15.3,51.4-29.7,110.6-43.2,177.6c-7.5,36.4-11.2,59.9-11.2,70.4
		c0,10.6,4.2,15.9,12.7,15.9c5.4,0,14-3.5,25.8-10.6c20.9-12.4,41-27.9,60.3-46.4l16.3,20c-38.8,35.2-63.5,56.5-74.4,63.9
		c-21.8,14.9-42.5,25.9-62.2,33c-12.9,4.7-25.5,7.1-37.7,7.1c-8.8,0-15.5-2.1-19.9-6.2c-4.4-4.1-6.6-10.1-6.6-18
		c0-5.1,1.4-12.1,4.1-21L1424,739c-29.2,34.9-64.1,64.8-104.5,89.9c-24.8,15.6-47.6,23.4-68.3,23.4c-19.7,0-34.9-7-45.4-20.9
		c-14.3-18.7-21.4-43.2-21.4-73.4c0-36,9.6-76.2,28.8-120.4c19.2-44.2,45-84.3,77.2-120.4c32.3-36,66.3-62.6,102-79.6
		c27.5-12.9,62.9-19.4,106-19.4c10.9,0,21.9,0.7,33.1,2.1L1543.8,400.4z M1480.6,479.8c-18.4-3.7-33.8-5.6-46.4-5.6
		c-30.6,0-57.3,8.4-80,25.2c-22.8,16.8-43.9,46.9-63.5,90.5c-19.5,43.5-29.3,87-29.3,130.3c0,23,3.9,39.7,11.7,49.8
		s18,15.2,30.6,15.2c23.4,0,48.6-12.6,75.4-37.9c26.8-25.2,46.6-61.6,59.1-109L1480.6,479.8z"/>
	<path class="st0" d="M1878.8,715.2l17.4,18c-26.6,30-58.1,57.3-94.5,82s-66.4,37-89.9,37c-10.6,0-19.3-4-26.1-12
		c-6.8-8-10.3-18.9-10.3-32.9c0-27.2,10.5-83.6,31.6-169.2l55-224c20-81,36.8-135.2,50.4-162.8c21-41.5,50.8-73.8,89.3-96.8
		s79.2-34.5,121.9-34.5c14.6,0,26,3.5,34.4,10.5c8.3,7,12.5,15.4,12.5,25.3c0,10.9-4,19.8-12.1,26.8c-8.1,7-19.9,10.5-35.3,10.5
		c-10.1,0-24.4-1.7-42.9-5c-16.2-2.7-31.1-4-44.9-4c-13.8,0-24.3,2.9-31.3,8.6c-9.8,8.1-18.6,25.2-26.5,51.3s-20.8,77.5-38.6,154.3
		l-51,213.8c-25.2,107.1-37.8,163-37.8,167.7c0,10.9,3.9,16.3,11.7,16.3c7.5,0,18.4-4.4,32.7-13.3
		C1822.4,765.3,1850.6,742.7,1878.8,715.2z"/>
	<path class="st0" d="M2027.2,838.2h-76l66.7-278.1c32.2-137.8,53.3-222.7,63.3-254.7c10-32,22-58.3,36.1-79.1
		c14.1-20.8,31.7-39.3,52.9-55.6s44.1-28.8,68.7-37.5c24.6-8.7,46.2-13,64.9-13c17.6,0,30.8,3.4,39.4,10.2s13,15.8,13,27.1
		c0,9.5-3.9,17.7-11.7,24.5s-17.6,10.2-29.4,10.2c-14.9,0-37.4-2.6-67.5-7.9c-9.8-2.1-18.4-3.1-25.9-3.1c-10.5,0-20.4,3.8-29.7,11.3
		s-17.6,20.9-24.9,40.1c-7.3,19.3-17.5,59.2-30.7,119.9l-36.8,163.7c32.5-37.3,66.3-66.1,101.2-86.4c26.4-15.1,51.7-22.6,75.8-22.6
		c17,0,31.3,6.4,43,19.1c11.7,12.7,17.5,28.7,17.5,48c0,36.3-18.8,68.7-56.5,97.1s-95.1,43.7-172.4,45.8c26.1,11.6,47,24.3,62.6,38
		s31,32.8,46.1,57.2c15.1,24.3,34.5,65.1,58.3,122.3c28.1,68.1,54.3,113.3,78.3,135.8c23.9,22.5,50.1,33.7,78.8,33.7
		c16.7,0,30.5-3.7,41.4-11c10.9-7.3,16.4-14.7,16.4-22.2c0-4.8-1.9-11.2-5.7-19.4c-4.2-8.8-6.3-16.3-6.3-22.4
		c0-7.8,3.1-14.8,9.4-20.9c6.3-6.1,13.6-9.2,22-9.2c9.8,0,18.1,3.8,25.1,11.5c7,7.7,10.5,17.8,10.5,30.4c0,24.5-11.3,46.3-33.7,65.5
		c-22.5,19.1-51.8,28.6-87.9,28.6c-37.1,0-70.3-9.4-99.6-28.1c-29.3-18.7-56.7-48.7-82.3-89.9c-14.6-23.8-40-78.2-76.3-163
		c-16.9-40.2-32-70.3-45.5-90.4c-10.5-15.7-24.8-31.2-43-46.5L2027.2,838.2z M2081.6,596.2c45.5,0.3,82.3-4.1,110.5-13.3
		s48.2-21.4,60.2-36.8c12-15.3,18-32,18-50c0-12.9-3.5-23.3-10.4-31.2c-6.9-7.8-15.3-11.8-25.1-11.8c-31.8,0-80.5,35.8-146.1,107.4
		L2081.6,596.2z"/>
	<path class="st0" d="M2786.5,400.4l34.1-7l-38.1,129.1c-15.3,51.4-29.7,110.6-43.2,177.6c-7.5,36.4-11.2,59.9-11.2,70.4
		c0,10.6,4.2,15.9,12.7,15.9c5.4,0,14-3.5,25.8-10.6c20.9-12.4,41-27.9,60.3-46.4l16.3,20c-38.8,35.2-63.5,56.5-74.4,63.9
		c-21.8,14.9-42.5,25.9-62.2,33c-12.9,4.7-25.5,7.1-37.7,7.1c-8.8,0-15.5-2.1-19.9-6.2c-4.4-4.1-6.6-10.1-6.6-18
		c0-5.1,1.4-12.1,4.1-21l20.4-69.1c-29.2,34.9-64.1,64.8-104.5,89.9c-24.8,15.6-47.6,23.4-68.3,23.4c-19.7,0-34.9-7-45.4-20.9
		c-14.3-18.7-21.4-43.2-21.4-73.4c0-36,9.6-76.2,28.8-120.4c19.2-44.2,45-84.3,77.2-120.4c32.3-36,66.3-62.6,102-79.6
		c27.5-12.9,62.9-19.4,106-19.4c10.9,0,21.9,0.7,33.1,2.1L2786.5,400.4z M2723.3,479.8c-18.4-3.7-33.8-5.6-46.4-5.6
		c-30.6,0-57.3,8.4-80,25.2c-22.8,16.8-43.9,46.9-63.5,90.5c-19.5,43.5-29.3,87-29.3,130.3c0,23,3.9,39.7,11.7,49.8
		s18,15.2,30.6,15.2c23.4,0,48.6-12.6,75.4-37.9c26.8-25.2,46.6-61.6,59.1-109L2723.3,479.8z"/>
	<path class="st0" d="M3689,448.2h-28c1.7-26.5,2.5-47.7,2.5-63.7c0-47.9-10-81.2-29.9-100.1s-45-28.3-75.3-28.3
		c-40.5,0-82.5,16.4-126.1,49.3c-43.6,32.8-81,84-112.3,153.6s-47,141.1-47,214.6c0,71.1,14.6,125.7,43.7,163.6
		s65.7,56.9,109.6,56.9c59.6,0,114.3-35.8,164-107.3c5.1-7.2,10.4-10.7,15.8-10.7c4.4,0,8.2,1.5,11.2,4.3c3.1,2.9,4.6,6.2,4.6,9.9
		c0,9.2-11.3,27.2-33.9,54c-22.6,26.8-51.1,49.2-85.4,67c-34.3,17.8-68.1,26.7-101.4,26.7c-40.1,0-77.3-10.5-111.7-31.4
		c-34.3-20.9-61-50.8-80-89.6c-19-38.8-28.5-84.9-28.5-138.3c0-74.5,19.5-148.7,58.4-222.5c39-73.8,87.7-130.8,146.2-171
		s115.7-60.2,171.5-60.2c20.1,0,40,2.2,59.7,6.7c8.5,2.1,43.5,13.8,105.1,35.3C3702.4,325.7,3691.4,386,3689,448.2z"/>
	<path class="st0" d="M4092,400.4l34.1-7L4088,522.4c-15.3,51.4-29.7,110.6-43.2,177.6c-7.5,36.4-11.2,59.9-11.2,70.4
		c0,10.6,4.2,15.9,12.7,15.9c5.4,0,14-3.5,25.8-10.6c20.9-12.4,41-27.9,60.3-46.4l16.3,20c-38.8,35.2-63.5,56.5-74.4,63.9
		c-21.8,14.9-42.5,25.9-62.2,33c-12.9,4.7-25.5,7.1-37.7,7.1c-8.8,0-15.5-2.1-19.9-6.2c-4.4-4.1-6.6-10.1-6.6-18
		c0-5.1,1.4-12.1,4.1-21l20.4-69.1c-29.2,34.9-64.1,64.8-104.5,89.9c-24.8,15.6-47.6,23.4-68.3,23.4c-19.7,0-34.9-7-45.4-20.9
		c-14.3-18.7-21.4-43.2-21.4-73.4c0-36,9.6-76.2,28.8-120.4c19.2-44.2,45-84.3,77.2-120.4c32.3-36,66.3-62.6,102-79.6
		c27.5-12.9,62.9-19.4,106-19.4c10.9,0,21.9,0.7,33.1,2.1L4092,400.4z M4028.8,479.8c-18.4-3.7-33.8-5.6-46.4-5.6
		c-30.6,0-57.3,8.4-80,25.2c-22.8,16.8-43.9,46.9-63.5,90.5c-19.5,43.5-29.3,87-29.3,130.3c0,23,3.9,39.7,11.7,49.8
		s18,15.2,30.6,15.2c23.4,0,48.6-12.6,75.4-37.9c26.8-25.2,46.6-61.6,59.1-109L4028.8,479.8z"/>
	<path class="st0" d="M4293.7,838.2h-76l66.7-278.1c32.2-137.8,53.3-222.7,63.3-254.7c10-32,22-58.3,36.1-79.1
		c14.1-20.8,31.7-39.3,52.9-55.6s44.1-28.8,68.7-37.5c24.6-8.7,46.2-13,64.9-13c17.6,0,30.8,3.4,39.4,10.2s13,15.8,13,27.1
		c0,9.5-3.9,17.7-11.7,24.5s-17.6,10.2-29.4,10.2c-14.9,0-37.4-2.6-67.5-7.9c-9.8-2.1-18.4-3.1-25.9-3.1c-10.5,0-20.4,3.8-29.7,11.3
		s-17.6,20.9-24.9,40.1c-7.3,19.3-17.5,59.2-30.7,119.9l-36.8,163.7c32.5-37.3,66.3-66.1,101.2-86.4c26.4-15.1,51.7-22.6,75.8-22.6
		c17,0,31.3,6.4,43,19.1c11.7,12.7,17.5,28.7,17.5,48c0,36.3-18.8,68.7-56.5,97.1s-95.1,43.7-172.4,45.8c26.1,11.6,47,24.3,62.6,38
		s31,32.8,46.1,57.2c15.1,24.3,34.5,65.1,58.3,122.3c28.1,68.1,54.3,113.3,78.3,135.8c23.9,22.5,50.1,33.7,78.8,33.7
		c16.7,0,30.5-3.7,41.4-11c10.9-7.3,16.4-14.7,16.4-22.2c0-4.8-1.9-11.2-5.7-19.4c-4.2-8.8-6.3-16.3-6.3-22.4
		c0-7.8,3.1-14.8,9.4-20.9c6.3-6.1,13.6-9.2,22-9.2c9.8,0,18.1,3.8,25.1,11.5c7,7.7,10.5,17.8,10.5,30.4c0,24.5-11.3,46.3-33.7,65.5
		c-22.5,19.1-51.8,28.6-87.9,28.6c-37.1,0-70.3-9.4-99.6-28.1c-29.3-18.7-56.7-48.7-82.3-89.9c-14.6-23.8-40-78.2-76.3-163
		c-16.9-40.2-32-70.3-45.5-90.4c-10.5-15.7-24.8-31.2-43-46.5L4293.7,838.2z M4348.1,596.2c45.5,0.3,82.3-4.1,110.5-13.3
		s48.2-21.4,60.2-36.8c12-15.3,18-32,18-50c0-12.9-3.5-23.3-10.4-31.2c-6.9-7.8-15.3-11.8-25.1-11.8c-31.8,0-80.5,35.8-146.1,107.4
		L4348.1,596.2z"/>
	<path class="st0" d="M4972.6,710.2l17,22c-83.4,79.3-154.9,119-214.5,119c-24.2,0-42.6-8.1-55.4-24.4
		c-12.8-16.3-19.1-42.4-19.1-78.3c0-72.6,22.1-144.8,66.4-216.7c49.7-81.7,109-122.6,178.1-122.6c24.2,0,42.6,6,55.4,18.1
		c12.8,12,19.1,28.6,19.1,49.6c0,22.1-7.7,43.8-22.9,65.1c-15.3,21.4-42.7,43.6-82.1,66.6c-19.7,11.2-61.9,31.4-126.4,60.5
		c-3.1,18.5-4.6,36.1-4.6,52.8c0,24.3,3.8,41.2,11.5,50.8s18.8,14.4,33.4,14.4c13.9,0,29.2-4,45.8-11.9
		C4896.7,764.7,4929.4,743,4972.6,710.2z M4794.3,636.2c54.7-24.4,95.8-50.7,123.3-78.8c18.7-19.6,28-39.1,28-58.4
		c0-14.6-3.8-26.2-11.5-34.8s-17.6-13-29.8-13c-12.6,0-24.8,4.8-36.7,14.2c-16,12.5-29.4,31.5-40.3,56.9
		C4811.8,559.7,4800.7,597.6,4794.3,636.2z"/>
	<path class="st0" d="M5871.8,448.2h-28c1.7-26.5,2.5-47.7,2.5-63.7c0-47.9-10-81.2-29.9-100.1s-45-28.3-75.3-28.3
		c-40.5,0-82.5,16.4-126.1,49.3c-43.6,32.8-81,84-112.3,153.6s-47,141.1-47,214.6c0,71.1,14.6,125.7,43.7,163.6
		s65.7,56.9,109.6,56.9c59.6,0,114.3-35.8,164-107.3c5.1-7.2,10.4-10.7,15.8-10.7c4.4,0,8.2,1.5,11.2,4.3c3.1,2.9,4.6,6.2,4.6,9.9
		c0,9.2-11.3,27.2-33.9,54c-22.6,26.8-51.1,49.2-85.4,67c-34.3,17.8-68.1,26.7-101.4,26.7c-40.1,0-77.3-10.5-111.7-31.4
		c-34.3-20.9-61-50.8-80-89.6c-19-38.8-28.5-84.9-28.5-138.3c0-74.5,19.5-148.7,58.4-222.5c39-73.8,87.7-130.8,146.2-171
		s115.7-60.2,171.5-60.2c20.1,0,40,2.2,59.7,6.7c8.5,2.1,43.5,13.8,105.1,35.3C5885.2,325.7,5874.2,386,5871.8,448.2z"/>
	<path class="st0" d="M6021.5,838.2h-76l35.7-137.3c17.3-67.3,32.5-131.3,45.4-191.9c3.1-15,4.6-24.3,4.6-28.1
		c0-7.2-3.8-10.8-11.3-10.8c-5.1,0-12.9,3.5-23.5,10.4c-10.6,7-29.7,24.1-57.3,51.6l-16-18c32.7-35,65.3-61.3,97.9-78.8
		c32.5-17.5,57.5-26.3,74.9-26.3c6.1,0,11,1.3,14.6,4s5.4,6,5.4,10.1c0,4.5-2.3,16.3-6.7,35.5l-22.3,92
		c34.4-54.2,73.3-100.5,116.6-139c20.8-18.4,38.2-27.6,52.2-27.6c10.2,0,18.8,3.3,25.6,10c6.8,6.7,10.2,14.5,10.2,23.3
		c0,9.2-3.3,17.1-10,23.6s-23.3,14.2-49.9,23.1c-25.3,8.4-45.8,18.5-61.7,30.3c-15.9,11.8-33.3,29.8-52.2,54.1
		c-18.9,24.3-32.1,45.5-39.5,63.7c-7.4,18.2-18.8,60.5-33.9,126.8L6021.5,838.2z"/>
	<path class="st0" d="M6539,710.2l17,22c-83.4,79.3-154.9,119-214.5,119c-24.2,0-42.6-8.1-55.4-24.4c-12.8-16.3-19.1-42.4-19.1-78.3
		c0-72.6,22.1-144.8,66.4-216.7c49.7-81.7,109-122.6,178.1-122.6c24.2,0,42.6,6,55.4,18.1c12.8,12,19.1,28.6,19.1,49.6
		c0,22.1-7.7,43.8-22.9,65.1c-15.3,21.4-42.7,43.6-82.1,66.6c-19.7,11.2-61.9,31.4-126.4,60.5c-3.1,18.5-4.6,36.1-4.6,52.8
		c0,24.3,3.8,41.2,11.5,50.8s18.8,14.4,33.4,14.4c13.9,0,29.2-4,45.8-11.9C6463,764.7,6495.8,743,6539,710.2z M6360.7,636.2
		c54.7-24.4,95.8-50.7,123.3-78.8c18.7-19.6,28-39.1,28-58.4c0-14.6-3.8-26.2-11.5-34.8s-17.6-13-29.8-13
		c-12.6,0-24.8,4.8-36.7,14.2c-16,12.5-29.4,31.5-40.3,56.9C6378.2,559.7,6367.1,597.6,6360.7,636.2z"/>
	<path class="st0" d="M7005.8,400.4l34.1-7l-38.1,129.1c-15.3,51.4-29.7,110.6-43.2,177.6c-7.5,36.4-11.2,59.9-11.2,70.4
		c0,10.6,4.2,15.9,12.7,15.9c5.4,0,14-3.5,25.8-10.6c20.9-12.4,41-27.9,60.3-46.4l16.3,20c-38.8,35.2-63.5,56.5-74.4,63.9
		c-21.8,14.9-42.5,25.9-62.2,33c-12.9,4.7-25.5,7.1-37.7,7.1c-8.8,0-15.5-2.1-19.9-6.2c-4.4-4.1-6.6-10.1-6.6-18
		c0-5.1,1.4-12.1,4.1-21L6886,739c-29.2,34.9-64.1,64.8-104.5,89.9c-24.8,15.6-47.6,23.4-68.3,23.4c-19.7,0-34.9-7-45.4-20.9
		c-14.3-18.7-21.4-43.2-21.4-73.4c0-36,9.6-76.2,28.8-120.4c19.2-44.2,45-84.3,77.2-120.4c32.3-36,66.3-62.6,102-79.6
		c27.5-12.9,62.9-19.4,106-19.4c10.9,0,21.9,0.7,33.1,2.1L7005.8,400.4z M6942.5,479.8c-18.4-3.7-33.8-5.6-46.4-5.6
		c-30.6,0-57.3,8.4-80,25.2c-22.8,16.8-43.9,46.9-63.5,90.5c-19.5,43.5-29.3,87-29.3,130.3c0,23,3.9,39.7,11.7,49.8
		s18,15.2,30.6,15.2c23.4,0,48.6-12.6,75.4-37.9c26.8-25.2,46.6-61.6,59.1-109L6942.5,479.8z"/>
	<path class="st0" d="M7270.5,330.5l81.2-31.4L7315,442.2h105.4l-8.2,36h-104.9l-44.6,171.3c-14.5,51.2-21.7,86.7-21.7,106.7
		c0,9.2,2,15.8,5.9,19.9c3.9,4.1,9.3,6.1,16.1,6.1c10.6,0,26.8-6.3,48.6-18.8c28.6-16.5,55.9-35.3,81.8-56.3l19.4,23
		c-74.6,56.2-124.5,90.5-149.7,103.1c-25.2,12.6-45.5,18.9-60.8,18.9c-12.6,0-22.6-4.6-29.9-13.8c-7.3-9.2-11-24.2-11-44.9
		c0-24.5,6.5-61.9,19.4-112.3l51.9-203H7150l9.2-36h82.7L7270.5,330.5z"/>
	<path class="st0" d="M7508.8,527.2l-22-17c34-37.6,65-64.3,93.1-80.2s51.9-23.8,71.7-23.8c10.9,0,19.2,2.4,25,7.2
		c5.8,4.8,8.7,11.4,8.7,19.6c0,9.9-11,51.7-33,125.5c-35.9,120.8-53.8,193.6-53.8,218.4c0,4.6,1.2,8.5,3.6,11.6
		c2.4,3.1,5,4.7,7.7,4.7c10.9,0,39-21.3,84.2-64l20,19c-46.8,44.5-80.9,73-102.4,85.4s-39.1,18.6-52.7,18.6
		c-12,0-21.4-3.7-28.4-11.1c-7-7.4-10.5-17.7-10.5-30.9c0-42.5,25.5-146.4,76.4-311.8c2.4-7.8,3.6-14.8,3.6-20.9
		c0-6.8-3.1-10.3-9.3-10.3c-6.9,0-14.7,2.7-23.4,8.1C7558.4,480.8,7539,498.1,7508.8,527.2z M7710.1,189.2
		c10.4,0,18.9,3.5,25.6,10.4c6.7,6.9,10.1,15.8,10.1,26.5c0,14.8-5.1,27.9-15.3,39.2c-10.2,11.3-21.7,16.9-34.5,16.9
		c-10.1,0-18.4-3.5-25.1-10.6c-6.7-7.1-10.1-16.3-10.1-27.8c0-15.2,4.9-28,14.6-38.7C7685.1,194.5,7696.7,189.2,7710.1,189.2z"/>
	<path class="st0" d="M8028.4,409.2c33.3,0,61,13.3,83.1,39.8c22.1,26.5,33.1,63.5,33.1,110.7c0,75.5-26.5,143.3-79.5,203.4
		c-53,60.1-109.1,90.1-168.2,90.1c-36.4,0-65.7-11.9-87.9-35.7c-22.3-23.8-33.4-56.3-33.4-97.5c0-71.4,20.4-137.5,61.2-198
		C7888.1,446.8,7952,409.2,8028.4,409.2z M7985.1,447.2c-28.9,0-56.9,20.7-84,62s-40.6,98.4-40.6,171.3c0,44.3,8.3,79.1,25,104.6
		c12.3,18.7,28.6,28.1,49,28.1c28.6,0,54.6-17.7,78.1-53.1c29.9-45.9,44.9-102.9,44.9-171c0-51-6.9-87.5-20.7-109.2
		S8005.9,447.2,7985.1,447.2z"/>
	<path class="st0" d="M8239.3,529.2l-17-18c43.8-41.9,78.7-69.7,104.7-83.4c26-13.7,48.2-20.6,66.7-20.6c7.2,0,12.8,1.5,16.9,4.5
		s6.2,6.5,6.2,10.6c0,3-0.9,8.4-2.5,16.1l-23.2,102.9c34.5-38.5,77.8-74.5,129.9-108c27.7-17.4,50.5-26.1,68.5-26.1
		c13.2,0,23.5,4.3,31,13s11.2,21.1,11.2,37.4c0,10.5-1.5,22.5-4.5,35.7c-5.4,22.1-19.5,70.3-42.4,144.4
		c-21.6,69.4-32.3,115.5-32.3,138.3c0,6.8,1,11.8,3.1,15.2s5,5.1,8.7,5.1c9.9,0,25.4-9.5,46.6-28.4c15-13.5,30-26,45.1-37.6l12,18
		c-31.3,34.7-63.7,62.5-97.3,83.6c-21.4,13.6-39.1,20.4-53,20.4c-12.9,0-22.9-4.7-30.1-14c-7.1-9.3-10.7-24.5-10.7-45.5
		c0-30.3,18.9-105.6,56.6-226c11.6-42.9,17.4-67.9,17.4-75c0-11-6.3-16.5-18.9-16.5c-13.6,0-31.1,7.2-52.5,21.5
		c-32,21.2-58.7,46.1-80.1,74.8c-13.6,18.4-25,47.8-34.2,88.1l-41.3,178.7h-76c14.3-51.2,26.7-100.2,37.2-147l45.4-194.6
		c1.7-7.8,2.5-13.4,2.5-16.8c0-9.1-3.4-13.7-10.3-13.7c-5.5,0-13.4,3.7-23.6,10.9C8277.7,491.4,8257.8,508.8,8239.3,529.2z"/>
	<path class="st0" d="M8960,409.2c30.2,0,53.5,5.9,69.9,17.5s24.7,25.2,24.7,40.4c0,9.2-3.5,17.1-10.4,23.9s-15.3,10.2-25.2,10.2
		c-6.5,0-12-1.4-16.8-4.3s-11.5-10.1-20.3-21.6c-16.6-22-33.1-33.1-49.3-33.1c-13.9,0-26.2,5.4-36.9,16c-10.7,10.7-16,24-16,40
		c0,13.9,3.4,27.4,10.2,40.5c6.8,13.1,23.9,34.2,51.4,63.4c37.6,40.1,56.5,78.1,56.5,114.1s-15.3,67.5-45.9,94.5
		s-70,40.5-118.3,40.5c-40.5,0-70.5-8.3-90.3-24.7s-29.6-36.8-29.6-61c0-11.9,3.7-21.8,11.2-29.6c7.4-7.8,16.6-11.7,27.4-11.7
		c9.5,0,17.6,3.1,24.3,9.4c6.8,6.3,10.1,13.6,10.1,22.1c0,3.4-0.2,7.8-0.7,13.2c-0.2,4.4-0.3,8.1-0.3,11.2
		c0,11.2,4.8,20.7,14.3,28.4c9.2,7.8,21.8,11.7,37.8,11.7c18.4,0,34.5-3.1,48.5-9.4c14-6.3,24.8-15.8,32.7-28.5s11.8-25.3,11.8-37.9
		c0-12.2-3.7-24.4-11-36.6s-23.7-32.4-49.1-60.5c-35.3-39.3-52.9-77.1-52.9-113.4c0-33.2,13.4-62.3,40.2-87.2
		C8884.5,421.7,8918.6,409.2,8960,409.2z"/>
</g>
<g>
</g>
<g>
</g>
<g>
</g>
<g>
</g>
<g>
</g>
<g>
</g>
</svg>
